<svg version="1.1" xmlns="http://www.w3.org/2000/svg" width="6400" height="800">

  <!-- Characters from the font "Mechanical" by Robert Jablonski -->

  <!-- "<" character -->
  <path fill="#45818E" transform="scale(1, -1) translate(-50, -650)" d="M 494 127
    c 20.6338 -9.02734 26.415 -22.5469 13.999 -46
    c -9.5498 -19.1006 -21.1143 -26.4502 -44.999 -16
    l -379 186
    c -14.168 7.08398 -23 14.4834 -23 34
    c 0 19.4639 8.84277 25.9209 23 33
    l 379 186
    c 22.959 10.7139 35.7119 2.57617 45 -16
    c 11.1172 -23.624 6.57324 -36.999 -14 -46
    l -328 -157
    z"
  />

  <!-- "A" glyph -->
  <path fill="#45818E" transform="scale(1, -1) translate(500, -650)" d="M 299 580
    c 29.9961 0.491211 55.3135 -10.46 63 -32
    l 172 -482
    h 30
    c 23.7188 0 31 -8.55176 31 -33
    c 0 -24.4502 -7.2793 -33 -31 -33
    h -173
    c -23.2305 0 -31 9.43848 -31 33
    c 0 23.9473 8.15137 33 31 33
    h 66
    l -40 117
    h -237
    l -40 -117
    h 59
    c 23.7197 0 30 -8.56738 30 -33
    c 0 -23.9238 -7.16211 -33 -30 -33
    h -163
    c -23.2305 0 -31 9.43848 -31 33
    c 0 24.4502 7.2793 33 31 33
    h 27
    l 162 447
    c 11 29 16.999 66.0664 74 67
    z
    M 203 249
    h 192
    l -91 264
    h -10
    z"
  />

  <!-- "r" glyph -->
  <path fill="#45818E" transform="scale(1, -1) translate(1050, -650)" d="M 72 33
    c 0 24.4502 7.28027 32.999 31.001 32.999
    h 76
    v 319
    h -62
    c -23.7188 0 -31 8.55176 -31 33
    c 0 23.9473 8.15137 33 31 33
    h 100
    c 23.7188 0 31 -8.55176 31 -33
    v -99
    c 32.1807 58.999 79.5225 109.616 144.999 133.001
    c 18.667 6.66699 37.334 10 56.001 10
    c 25.333 0 49.333 -6.66699 72 -20
    c 17.7285 -10.1299 23.4561 -24.6328 15 -50
    c -6.65723 -17.1172 -19.0996 -38.7217 -42.001 -24
    c -16 8.66699 -33.333 13 -52 13
    c -57.0166 0 -98.7041 -33.5908 -127.5 -65.5
    c -33.3047 -36.9053 -62.5 -86.2559 -62.5 -154.5
    v -95
    h 165
    c 23.7188 0 31 -8.55176 31 -33
    c 0 -24.4502 -7.2793 -33 -31 -33
    h -314
    c -23.2305 0 -31 9.43848 -31 33
    z"
  />

  <!-- "l" glyph -->
  <path fill="#45818E" transform="scale(1, -1) translate(1500, -650)" d="M 86 33
    c 0 23.9473 8.15137 33 31 33
    h 153
    v 508
    h -133
    c -23.2305 0 -31 9.43848 -31 33
    c 0 24.4014 7.29395 34 31 34
    h 175
    c 23.7031 0 31 -9.60156 31 -34
    v -541
    h 157
    c 23.7188 0 31 -8.55176 31 -33
    c 0 -24.4502 -7.2793 -33 -31 -33
    h -383
    c -23.2305 0 -31 9.43848 -31 33
    z"
  />

  <!-- "o" glyph -->
  <path fill="#45818E" transform="scale(1, -1) translate(2000, -650)" d="M 59 226
    c 0 113.019 62.8936 185.844 145 218.5
    c 29.333 11.667 61.333 17.5 96 17.5
    c 113.625 0 188.064 -60.5283 222.501 -141.5
    c 12.333 -29 18.5 -60.5 18.5 -94.5
    c 0 -74.4512 -29.8965 -132.007 -69 -170.5
    c -39.1914 -38.5791 -97.4229 -66.5 -172.001 -66.5
    c -112.999 0 -189.411 60.3262 -223 141.5
    c -12 29 -18 60.833 -18 95.5
    z
    M 136 226
    c 0 -77.4365 40.8877 -129.555 97.001 -152
    c 20 -8 42.333 -12 67 -12
    c 79.0537 0 129.157 40.8926 152 98
    c 8 20 12 42 12 66
    c 0 77.6553 -41.4775 128.54 -97.5 151.5
    c -20.333 8.33301 -42.5 12.5 -66.5 12.5
    c -78.416 0 -129.087 -42.1709 -152.001 -98.5
    c -8 -19.667 -12 -41.5 -12 -65.5
    z"
  />

  <!-- "W" glyph -->
  <path fill="#45818E" transform="scale(1, -1) translate(2950, -650)" d="M 604 546
    c0 -23.9238 -7.16211 -33 -30 -33
    h -27
    l -67 -492
    c -2.62988 -23.6729 -16.1221 -32 -42 -32
    c -27.3164 0 -42.5391 10.8613 -50 32
    l -90 284
    l -91 -284
    c -6.2002 -21.082 -24.9883 -32 -50.999 -32
    c -25.8926 0 -38.3701 8.32812 -41 32
    l -65 492
    h -24
    c -23.2305 0 -31 9.43848 -31 33
    c 0 24.4014 7.29395 34 31 34
    h 168
    c 23.7031 0 31 -9.60156 31 -34
    c 0 -23.9473 -8.15137 -33 -31 -33
    h -71
    l 48 -391
    l 92 287
    c 4.23438 14.1152 15.9746 23 34.999 23
    c 19.2656 0 31.501 -5.50293 36 -19
    l 91 -291
    l 51 391
    h -60
    c -23.2305 0 -31 9.43848 -31 33
    c 0 24.4014 7.29395 34 31 34
    h 158
    c 23.7051 0 30 -9.61719 30 -34
    z"
  />

  <!-- "a" glyph -->
  <path fill="#45818E" transform="scale(1, -1) translate(3450, -650)" d="M 312 462
    c 112.878 0 172.998 -52.0303 172.998 -163.002
    v -194
    c 0 -26 11 -39 33 -39
    h 17
    c 23.7197 0 30 -8.56738 30 -33
    c 0 -23.9238 -7.16211 -33 -30 -33
    h -32
    c -46.5762 0 -74.5576 24.2334 -83.999 62
    c -46.0996 -40.1895 -104.482 -73 -184.999 -73
    c -76.4844 0 -130.853 30.248 -155.5 82.5
    c -8.33301 17.667 -12.5 37.834 -12.5 60.501
    c 0 109.486 88.9082 151 198 151
    c 56.9365 0 103.981 -9.9082 148 -25
    v 41
    c 0 66.6426 -30.5566 92 -100 92
    c -59.0156 0 -114.186 -16.7363 -150 -43
    c -18.4141 -13.3916 -34.4951 -3.68848 -46 12
    c -13.6348 18.5928 -11.0303 35.3428 5 47.001
    c 46.8906 34.5508 111.055 55 191 55
    z
    M 236.998 57.998
    c 78.249 0 133.321 38.1641 175 81
    v 53
    c -42.1689 13.6426 -94.082 22 -148 22
    c -64.2129 0 -121 -17.4268 -121 -81
    c 0 -52.1094 39.2422 -75 94 -75
    z"
  />

  <!-- "t" glyphs -->
  <path fill="#45818E" transform="scale(1, -1) translate(3950, -650)" d="M 57 379
    c 0 24.4502 7.28027 33.001 31.001 33.001
    h 99
    v 147
    c 0 24.5645 10.9805 31 37 31
    c 26.0967 0 36 -6.40332 36 -31
    v -147
    h 201
    c 23.2305 0 31 -9.43848 31 -33
    c 0 -24.4502 -7.2793 -33 -31 -33
    h -201
    v -178
    c 0 -67.6289 19.4004 -107 87 -107
    c 53.2646 0 102.57 24.75 137.999 48
    c 20.1055 12.7939 35.2354 -0.47168 44 -18.001
    c 11.583 -23.166 6.86816 -35.7549 -9.99902 -47
    c -36.5186 -23.0645 -79.2002 -40.6396 -128.501 -50.5
    c -15 -3 -29.5 -4.5 -43.5 -4.5
    c -112.137 0 -160 60.6396 -160 173
    v 184
    h -99
    c -23.7188 0 -31 8.55176 -31 33
    z"
  />
  <path fill="#45818E" transform="scale(1, -1) translate(4450, -650)" d="M 57 379
    c 0 24.4502 7.28027 33.001 31.001 33.001
    h 99
    v 147
    c 0 24.5645 10.9805 31 37 31
    c 26.0967 0 36 -6.40332 36 -31
    v -147
    h 201
    c 23.2305 0 31 -9.43848 31 -33
    c 0 -24.4502 -7.2793 -33 -31 -33
    h -201
    v -178
    c 0 -67.6289 19.4004 -107 87 -107
    c 53.2646 0 102.57 24.75 137.999 48
    c 20.1055 12.7939 35.2354 -0.47168 44 -18.001
    c 11.583 -23.166 6.86816 -35.7549 -9.99902 -47
    c -36.5186 -23.0645 -79.2002 -40.6396 -128.501 -50.5
    c -15 -3 -29.5 -4.5 -43.5 -4.5
    c -112.137 0 -160 60.6396 -160 173
    v 184
    h -99
    c -23.7188 0 -31 8.55176 -31 33
    z"
  />

  <!-- "s" glyph -->
  <path fill="#45818E" transform="scale(1, -1) translate(4950, -650)" d="M 323 -11
    c -73.1934 0 -124.656 21.6562 -161.999 58.999
    v -27
    c 0 -24.5938 -10.9492 -32 -37 -32
    c -26.0547 0 -37 7.40137 -37 32
    v 117
    c 0 24.1309 11.8652 32 37 32
    c 15.958 0 21.1533 -7.88281 26 -20
    c 24.4756 -63.9082 78.7686 -90 168 -90
    c 62.8184 0 118 20.2969 118 75
    c 0 26.7178 -20.1738 38.1074 -42 45
    c -48.4062 16.1357 -117.56 16.8418 -172 26.501
    c -69.9004 12.4014 -132 38.5518 -132 120.5
    c 0 72.3691 47.2051 109.63 104.5 126
    c 21 6 43.833 9 68.5 9
    c 67.1895 0 117.933 -21.7969 154 -54
    v 22
    c 0 24.5938 10.9492 32 37 32
    c 26.1279 0 36 -7.37305 36 -32
    v -93
    c 0 -24.1426 -10.8301 -31 -36 -31
    c -11.333 0 -19.333 4 -24 12
    c -27.8486 53.165 -81.2441 73 -162 73
    c -52.4824 0 -101 -16.1924 -101 -64
    c 0 -24.7236 19.1221 -34.4072 40 -41
    c 65.167 -21.7227 160.719 -15.0459 222.999 -39
    c 46.3105 -18.0098 83 -47.9053 83 -112
    c 0 -76.2363 -48.6172 -117.385 -109 -135.5
    c -23.333 -7 -50.333 -10.5 -81 -10.5
    z"
  />

  <!-- "/" character -->
  <path fill="#45818E" transform="scale(1, -1) translate(5400, -650)" d="M 431 637
    c 3.8457 10.2559 18.2344 14.999 31.999 14.999
    c 18.7754 0 47.3057 -9.28809 38.001 -31
    l -333 -751
    c -3.85059 -10.2676 -17.2188 -15 -31 -15
    c -18.6396 0 -33.7422 5.83203 -39.5 18.5
    c -1.66699 3.66699 -1.5 7.83398 0.5 12.501
    z"
  />

  <!-- ">" character -->
  <path fill="#45818E" transform="scale(1, -1) translate(5850, -650)" d="M 434 285
    l -328.999 157.001
    c -20.5752 9.00195 -25.1182 22.373 -14 46
    c 9.27539 18.5508 22.3232 28.0938 45 16
    l 380 -186
    c 13.7227 -6.86133 23 -14.4551 23 -33
    c 0 -19.0117 -9.85352 -26.8291 -23 -34
    l -380 -186
    c -23.2451 -10.8477 -34.7139 -2.28613 -45 16
    c -11.0479 23.4756 -5.32617 36.9805 13.999 45.999
    z"
  />

</svg>
